<svg xmlns="http://www.w3.org/2000/svg" width="78" height="78" fill="none"><g style="fill:#000"><g class="fills"><path d="M75.906,19.303L39.115,2.037L2.102,19.231L38.921,38.419ZM38.999,38.439L38.999,75.964L2.037,54.134L2.037,19.314ZM38.999,38.439L38.999,75.964L75.962,54.134L75.962,19.314Z" class="fills" style="fill:none;stroke-dasharray:none;stroke-linejoin:round"/></g><g class="strokes" style="fill:none;stroke-dasharray:none;stroke-linejoin:round"><path d="M75.906,19.303L39.115,2.037L2.102,19.231L38.921,38.419ZM38.999,38.439L38.999,75.964L2.037,54.134L2.037,19.314ZM38.999,38.439L38.999,75.964L75.962,54.134L75.962,19.314Z" class="stroke-shape" style="fill:none;stroke-width:1;stroke:#6234b1;stroke-opacity:1"/></g><g class="strokes" style="fill:#000"><g class="fills"><path d="M75.906,19.303L39.115,2.037L2.102,19.231L38.921,38.419ZM38.999,38.439L38.999,75.964L2.037,54.134L2.037,19.314ZM38.999,38.439L38.999,75.964L75.962,54.134L75.962,19.314Z" class="stroke-shape" style="fill:none;stroke-dasharray:none;stroke-linejoin:round"/></g><g class="strokes" style="fill:none;stroke-dasharray:none;stroke-linejoin:round"><path d="M75.906,19.303L39.115,2.037L2.102,19.231L38.921,38.419ZM38.999,38.439L38.999,75.964L2.037,54.134L2.037,19.314ZM38.999,38.439L38.999,75.964L75.962,54.134L75.962,19.314Z" class="stroke-shape" style="fill:none;stroke-width:1;stroke:#6234b1;stroke-opacity:1"/></g></g></g></svg>