<svg xmlns="http://www.w3.org/2000/svg" width="42" height="42" fill="none"><g style="fill:#000"><g class="fills"><path d="M40.872,10.394L21.062,1.097L1.132,10.355L20.958,20.687ZM21.000,20.698L21.000,40.904L1.097,29.149L1.097,10.400ZM21.000,20.698L21.000,40.904L40.902,29.149L40.902,10.400Z" class="fills" style="fill:none;stroke-dasharray:none;stroke-linejoin:round"/></g><g class="strokes" style="fill:none;stroke-dasharray:none;stroke-linejoin:round"><g class="inner-stroke-shape"><defs><clipPath id="d"><use href="#c"/></clipPath><path id="c" d="M40.872,10.394L21.062,1.097L1.132,10.355L20.958,20.687ZM21.000,20.698L21.000,40.904L1.097,29.149L1.097,10.400ZM21.000,20.698L21.000,40.904L40.902,29.149L40.902,10.400Z" style="fill:none;stroke-width:2;stroke:#ad8bfa;stroke-opacity:1"/></defs><use clip-path="url('#d')" href="#c"/></g></g><g class="strokes" style="fill:#000"><g class="fills"><path d="M40.872,10.394L21.062,1.097L1.132,10.355L20.958,20.687ZM21.000,20.698L21.000,40.904L1.097,29.149L1.097,10.400ZM21.000,20.698L21.000,40.904L40.902,29.149L40.902,10.400Z" class="stroke-shape" style="fill:none;stroke-dasharray:none;stroke-linejoin:round"/></g><g class="strokes" style="fill:none;stroke-dasharray:none;stroke-linejoin:round"><g class="inner-stroke-shape"><defs><clipPath id="f"><use href="#e"/></clipPath><path id="e" d="M40.872,10.394L21.062,1.097L1.132,10.355L20.958,20.687ZM21.000,20.698L21.000,40.904L1.097,29.149L1.097,10.400ZM21.000,20.698L21.000,40.904L40.902,29.149L40.902,10.400Z" style="fill:none;stroke-width:2;stroke:#ad8bfa;stroke-opacity:1"/></defs><use clip-path="url('#f')" href="#e"/></g></g></g></g></svg>