<svg xmlns="http://www.w3.org/2000/svg" width="114" height="114" fill="none"><g style="fill:#000"><g class="fills"><path d="M110.940,28.212L57.169,2.977L3.073,28.108L56.885,56.151ZM56.999,56.180L56.999,111.025L2.977,79.119L2.977,28.229ZM56.999,56.180L56.999,111.025L111.021,79.119L111.021,28.229Z" class="fills" style="fill:none;stroke-dasharray:none;stroke-linejoin:round"/></g><g class="strokes" style="fill:none;stroke-dasharray:none;stroke-linejoin:round"><g class="inner-stroke-shape"><defs><clipPath id="d"><use href="#c"/></clipPath><path id="c" d="M110.940,28.212L57.169,2.977L3.073,28.108L56.885,56.151ZM56.999,56.180L56.999,111.025L2.977,79.119L2.977,28.229ZM56.999,56.180L56.999,111.025L111.021,79.119L111.021,28.229Z" style="fill:none;stroke-width:2;stroke:#8b5cf6;stroke-opacity:1"/></defs><use clip-path="url('#d')" href="#c"/></g></g><g class="strokes" style="fill:#000"><g class="fills"><path d="M110.940,28.212L57.169,2.977L3.073,28.108L56.885,56.151ZM56.999,56.180L56.999,111.025L2.977,79.119L2.977,28.229ZM56.999,56.180L56.999,111.025L111.021,79.119L111.021,28.229Z" class="stroke-shape" style="fill:none;stroke-dasharray:none;stroke-linejoin:round"/></g><g class="strokes" style="fill:none;stroke-dasharray:none;stroke-linejoin:round"><g class="inner-stroke-shape"><defs><clipPath id="f"><use href="#e"/></clipPath><path id="e" d="M110.940,28.212L57.169,2.977L3.073,28.108L56.885,56.151ZM56.999,56.180L56.999,111.025L2.977,79.119L2.977,28.229ZM56.999,56.180L56.999,111.025L111.021,79.119L111.021,28.229Z" style="fill:none;stroke-width:2;stroke:#8b5cf6;stroke-opacity:1"/></defs><use clip-path="url('#f')" href="#e"/></g></g></g></g></svg>