<svg xmlns="http://www.w3.org/2000/svg" xmlns:svg="http://www.w3.org/2000/svg" xmlns:xlink="http://www.w3.org/1999/xlink" id="svg1" width="80" height="56" version="1.1" viewBox="0 0 21.167 14.817"><defs id="defs1"><linearGradient id="paint2_linear_612_1773" x1="20.5" x2="360" y1="54.5" y2="352" gradientUnits="userSpaceOnUse"><stop id="stop29726" stop-color="#6AD2FA"/><stop id="stop29728" offset=".495" stop-color="#7669FA"/><stop id="stop29730" offset=".745" stop-color="#8850E4"/><stop id="stop29732" offset="1" stop-color="#CE0EBB"/></linearGradient><linearGradient id="linearGradient26" x1="545.273" x2="569.589" y1="78.388" y2="99.234" gradientTransform="matrix(0.86330376,0,0,0.86330376,-396.30327,-39.187137)" gradientUnits="userSpaceOnUse" xlink:href="#paint2_linear_612_1773"/></defs><g id="layer1" transform="translate(-74.083338,-30.162499)"><path id="path93-8-9" d="m 75.670806,44.979166 q -0.65484,0 -1.12117,-0.466322 -0.46631,-0.466322 -0.46631,-1.121164 h 3.70416 q -0.65483,0 -1.12117,-0.466365 -0.46631,-0.466323 -0.46631,-1.121156 V 31.749986 q 0,-0.654842 0.46631,-1.121164 0.46634,-0.466323 1.12117,-0.466323 h 13.75835 q 0.65483,0 1.12119,0.466323 0.46633,0.466322 0.46633,1.121164 v 10.054173 q 0,0.654833 -0.46633,1.121156 -0.46636,0.466365 -1.12119,0.466365 h 3.70416 q 0,0.661437 -0.46632,1.124479 -0.46633,0.463007 -1.12117,0.463007 z m 8.99122,-0.793765 q 0.33519,0 0.56688,-0.226798 0.23161,-0.226807 0.23161,-0.562244 0,-0.335204 -0.22681,-0.566837 -0.22681,-0.231607 -0.56225,-0.231607 -0.33519,0 -0.56688,0.226799 -0.23159,0.226807 -0.23159,0.562244 0,0.335203 0.22679,0.566879 0.22681,0.231599 0.56225,0.231599 z m -6.87454,-2.381242 h 13.75835 V 31.749986 h -13.75835 z m 0,0 V 31.749986 Z m 8.42776,-4.322078 h 0.34865 c 0.0291,0.174327 0.11622,0.348645 0.20337,0.522972 l -0.23242,0.232427 c -0.17433,0.174327 -0.17433,0.464863 0,0.639182 0.17431,0.174327 0.46486,0.174327 0.63919,0 l 0.23241,-0.232428 c 0.17433,0.08717 0.34865,0.174327 0.52298,0.203378 v 0.319595 c 0,0.232427 0.20337,0.435804 0.43581,0.435804 0.23243,0 0.4358,-0.203377 0.4358,-0.435804 v -0.348646 c 0.17432,-0.02909 0.34865,-0.116218 0.52297,-0.203377 l 0.23243,0.232428 c 0.17433,0.174318 0.46486,0.174318 0.63918,0 0.17433,-0.174327 0.17433,-0.464864 0,-0.639182 l -0.23242,-0.232436 c 0.0872,-0.174318 0.17432,-0.348645 0.20338,-0.522963 h 0.31959 c 0.23243,0 0.4358,-0.203377 0.4358,-0.435813 0,-0.232428 -0.20337,-0.435805 -0.4358,-0.435805 h -0.3777 c -0.0291,-0.174327 -0.11621,-0.348645 -0.20338,-0.522972 l 0.23243,-0.232427 c 0.40675,-0.406754 -0.23243,-1.045936 -0.63919,-0.639182 l -0.23242,0.232428 c -0.17432,-0.08716 -0.34865,-0.174327 -0.52297,-0.203377 v -0.290537 c 0,-0.232436 -0.20337,-0.435813 -0.43581,-0.435813 -0.23243,0 -0.4358,0.203377 -0.4358,0.435813 v 0.348646 c -0.17433,0.02909 -0.34865,0.116217 -0.52298,0.203377 l -0.23242,-0.232436 c -0.40677,-0.406746 -1.04595,0.232436 -0.63919,0.63919 l 0.23242,0.232427 c -0.0872,0.174327 -0.17431,0.348645 -0.20337,0.522972 h -0.29054 c -0.23242,0.0581 -0.3777,0.290537 -0.31959,0.552023 0.0291,0.145268 0.17432,0.290536 0.31959,0.319586 z m 2.14999,-1.42364 c 0.55202,0.0581 0.95877,0.522972 0.90067,1.074995 -0.0291,0.464863 -0.40676,0.871617 -0.90067,0.900667 -0.55202,-0.0581 -0.95879,-0.522972 -0.90067,-1.074994 0.0291,-0.464855 0.40676,-0.871609 0.90067,-0.900668 z m -5.07143,-0.813508 v 3.137815 h -0.90066 v -1.801335 c 0,-0.261486 -0.20337,-0.464863 -0.46486,-0.464863 -0.26149,0 -0.46486,0.203377 -0.46486,0.464863 v 0 1.801335 h -0.90067 v -0.900667 c 0,-0.261486 -0.20338,-0.464863 -0.46485,-0.464863 -0.2615,0 -0.46488,0.203377 -0.46488,0.464863 v 0.900667 h -0.4358 c -0.23244,0 -0.43581,0.203377 -0.43581,0.435813 0,0.232428 0.20337,0.435805 0.43581,0.435805 h 5.37495 c 0.23244,0 0.43581,-0.203377 0.43581,-0.435805 0,-0.232436 -0.20337,-0.435813 -0.43581,-0.435813 h -0.43581 v -3.137815 c 0,-0.261478 -0.20337,-0.464855 -0.46485,-0.464855 -0.26148,0 -0.46486,0.203377 -0.46486,0.464855 v 0 z" style="fill:url(#linearGradient26);stroke-width:.00551213"/></g></svg>