<svg xmlns="http://www.w3.org/2000/svg" xmlns:svg="http://www.w3.org/2000/svg" id="svg5" width="7" height="7" fill="none" version="1.1" viewBox="2635 427 7 7"><path style="fill:#fff;fill-opacity:1" id="path1" d="m 2636.278,429.937 c -0.083,0.078 -0.131,0.186 -0.131,0.3 0,0.226 0.184,0.41 0.41,0.41 h 1.061 v 1.765 c 0,0.325 0.262,0.588 0.588,0.588 h 0.588 c 0.325,0 0.588,-0.263 0.588,-0.588 v -1.765 h 1.061 c 0.226,0 0.41,-0.184 0.41,-0.41 0,-0.114 -0.048,-0.222 -0.131,-0.3 l -1.968,-1.836 c -0.07,-0.064 -0.16,-0.101 -0.254,-0.101 -0.094,0 -0.186,0.037 -0.254,0.101 z m 0,0 z" class="fills"/><g id="g5" class="strokes" transform="translate(-1.853,-2)"><g id="g4" class="outer-stroke-shape"><defs id="defs2"><mask id="b" width="9.534" height="9.828" x="2635.586" y="427.586" maskUnits="userSpaceOnUse"><use style="fill:none;stroke:#fff;stroke-width:2" id="use1" href="#a"/><use style="fill:#000;stroke:none" id="use2" href="#a"/></mask><path id="a" d="m 2638.131,431.937 c -0.083,0.078 -0.131,0.186 -0.131,0.3 0,0.226 0.184,0.41 0.41,0.41 h 1.061 v 1.765 c 0,0.325 0.262,0.588 0.588,0.588 h 0.588 c 0.325,0 0.588,-0.263 0.588,-0.588 v -1.765 h 1.061 c 0.226,0 0.41,-0.184 0.41,-0.41 0,-0.114 -0.048,-0.222 -0.131,-0.3 l -1.968,-1.836 c -0.07,-0.064 -0.16,-0.101 -0.254,-0.101 -0.094,0 -0.186,0.037 -0.254,0.101 z m 0,0 z"/></defs><use style="fill:none;stroke:#37255d;stroke-width:2;stroke-opacity:1" id="use3" href="#a" mask="url(#b)"/><use style="fill:none;stroke:none;stroke-width:1;stroke-opacity:1" id="use4" href="#a"/></g></g></svg>